<svg xmlns="http://www.w3.org/2000/svg" viewBox="0 0 400 300">
  <defs>
    <linearGradient id="bg" x1="0" y1="0" x2="1" y2="1">
      <stop offset="0" stop-color="#E9F1E9"/><stop offset="1" stop-color="#D6E5D8"/>
    </linearGradient>
  </defs>
  <rect width="400" height="300" fill="url(#bg)"/>
  <path d="M170 70 Q120 90 120 150 Q120 220 170 245 L200 250 L200 65 Z" fill="#3E9450"/>
  <path d="M230 70 Q280 90 280 150 Q280 220 230 245 L200 250 L200 65 Z" fill="#2F7A3B"/>
  <rect x="168" y="80" width="64" height="160" rx="28" fill="#F3C13A"/>
  <g fill="#D9A11E">
    <circle cx="184" cy="100" r="5"/><circle cx="200" cy="100" r="5"/><circle cx="216" cy="100" r="5"/>
    <circle cx="184" cy="118" r="5"/><circle cx="200" cy="118" r="5"/><circle cx="216" cy="118" r="5"/>
    <circle cx="184" cy="136" r="5"/><circle cx="200" cy="136" r="5"/><circle cx="216" cy="136" r="5"/>
    <circle cx="184" cy="154" r="5"/><circle cx="200" cy="154" r="5"/><circle cx="216" cy="154" r="5"/>
    <circle cx="184" cy="172" r="5"/><circle cx="200" cy="172" r="5"/><circle cx="216" cy="172" r="5"/>
    <circle cx="184" cy="190" r="5"/><circle cx="200" cy="190" r="5"/><circle cx="216" cy="190" r="5"/>
    <circle cx="184" cy="208" r="5"/><circle cx="200" cy="208" r="5"/><circle cx="216" cy="208" r="5"/>
  </g>
</svg>
